<svg id="Layer_1" data-name="Layer 1" xmlns="http://www.w3.org/2000/svg" viewBox="0 0 1292.28 372.2"><defs><style>.cls-1{fill:#2a121c;}.cls-2{fill:#2b121d;isolation:isolate;}</style></defs><path class="cls-1" d="M99,186.1c2.1-9.7,5-19.8,8-30.4-12.5-4.2-24-8.7-34.4-13.4a162.63,162.63,0,0,0-6.1,31.1C76.1,177.6,87.2,182.1,99,186.1Z" transform="translate(-0.07 0.2)"/><path class="cls-1" d="M168.3,93.5c.9-8.5,1.7-16.3,1.9-23.1-6.8-1.9-13.9-4-20.7-6.1-3.5,6.1-7.3,13-11.1,20.5C148.3,87.8,158.4,90.9,168.3,93.5Z" transform="translate(-0.07 0.2)"/><path class="cls-1" d="M93.4,233a113.73,113.73,0,0,1,.2-14.1c-9.2-3.1-17.4-6.4-25.2-9.7a68.59,68.59,0,0,0,6.8,16.7C80.9,228.3,87,230.7,93.4,233Z" transform="translate(-0.07 0.2)"/><path class="cls-1" d="M215,73.2a114.69,114.69,0,0,0-15.3-15.1,3.4,3.4,0,0,0-1.4.2,94.35,94.35,0,0,1,11.3,15.1,51.51,51.51,0,0,1,5.4-.2Z" transform="translate(-0.07 0.2)"/><path class="cls-1" d="M224,106.7a130.24,130.24,0,0,1,4.7,33.5,66.35,66.35,0,0,0,13-.9,114.82,114.82,0,0,0-7.3-33.2A99.16,99.16,0,0,1,224,106.7Z" transform="translate(-0.07 0.2)"/><path class="cls-1" d="M222.8,102.9a57,57,0,0,0,9.9-.5,75.15,75.15,0,0,0-3.3-7.1,131.63,131.63,0,0,0-11.6-18.6,50.07,50.07,0,0,1-5.9.5,133.56,133.56,0,0,1,8.5,18.4c.7,2.4,1.7,4.7,2.4,7.3Z" transform="translate(-0.07 0.2)"/><path class="cls-1" d="M228.7,143.9a132.2,132.2,0,0,1-4.5,33.2,50.62,50.62,0,0,0,13.4-1.4,111,111,0,0,0,4-33,37.93,37.93,0,0,1-12.9,1.2Z" transform="translate(-0.07 0.2)"/><path class="cls-1" d="M192.1,177.9c-11.1-1.9-23.3-4.5-36.3-7.5-3.1,10.6-6.4,20.5-9.9,29.9,12.3,3.1,23.8,5.4,34.4,7.1A148.9,148.9,0,0,0,192.1,177.9Z" transform="translate(-0.07 0.2)"/><path class="cls-1" d="M206,209.9a114.41,114.41,0,0,0,13.2-29c-3.3-.2-6.8-.5-10.8-.9s-8-.9-12.5-1.7a154.86,154.86,0,0,1-11.6,29.5,133.45,133.45,0,0,0,21.7,2.1Z" transform="translate(-0.07 0.2)"/><path class="cls-1" d="M97.4,234.5c7.5,2.6,15.8,5,23.6,7.1a105,105,0,0,0,7.8-12c-10.4-2.6-21-5.9-31.4-9.2A109.86,109.86,0,0,0,97.4,234.5Z" transform="translate(-0.07 0.2)"/><path class="cls-1" d="M199.4,137.1a190,190,0,0,0-.7-33c-8.5-1.4-17.4-3.3-26.9-5.7q-2.1,15.15-5.7,31.8c11.7,2.9,23,5.2,33.3,6.9Z" transform="translate(-0.07 0.2)"/><path class="cls-1" d="M137,88.1c-4.5,9.2-8.7,19.1-12.7,29.7,12.5,4.2,25.5,8,38.2,11.3q3.6-16.65,5.4-31.8C157.5,94.7,146.9,91.6,137,88.1Z" transform="translate(-0.07 0.2)"/><path class="cls-1" d="M223.3,181.2c0,.2,0,.2-.2.5a124.33,124.33,0,0,1-12.5,28.5,37.94,37.94,0,0,0,11.6-1.4,112.24,112.24,0,0,0,14.4-28.5A85.09,85.09,0,0,1,223.3,181.2Z" transform="translate(-0.07 0.2)"/><path class="cls-1" d="M196.9,174.8a207.18,207.18,0,0,0,23.3,2.4,132.2,132.2,0,0,0,4.5-33.2c-3.1-.2-6.4-.5-10.1-.7-3.8-.5-7.8-.9-12-1.7a180.07,180.07,0,0,1-5.7,32.8C197.1,174.3,197.1,174.6,196.9,174.8Z" transform="translate(-0.07 0.2)"/><path class="cls-1" d="M142.2,199.1c3.5-9.2,6.8-19.3,9.9-29.9-13.9-3.5-28.1-7.8-41.5-12.3-3.1,10.6-5.9,20.7-8,30.4,12.9,4.5,26.6,8.5,39.6,11.8Z" transform="translate(-0.07 0.2)"/><path class="cls-1" d="M196.4,75.8a136.13,136.13,0,0,1,5.7,24.8,167.76,167.76,0,0,0,16.7,1.9,114.83,114.83,0,0,0-11.6-25.7A73.49,73.49,0,0,1,196.4,75.8Z" transform="translate(-0.07 0.2)"/><path class="cls-1" d="M174.2,71.3a200,200,0,0,1-2.1,23.1c9.2,2.4,17.9,4.2,25.9,5.7a134.45,134.45,0,0,0-6.1-25C186.5,74.1,180.4,73,174.2,71.3Z" transform="translate(-0.07 0.2)"/><path class="cls-1" d="M219.7,106.4a77.64,77.64,0,0,1-7.8-.7c-3.1-.2-6.1-.7-9.7-1.2a190,190,0,0,1,.7,33c8,1.2,15.3,2.1,21.7,2.4A131.07,131.07,0,0,0,219.7,106.4Z" transform="translate(-0.07 0.2)"/><path class="cls-1" d="M193.3,173.4a198.74,198.74,0,0,0,5.7-32.3c-10.4-1.7-21.9-4.2-33.9-7.1-1.2,5-2.4,10.1-3.5,15.1-1.4,5.9-3.1,11.8-4.7,17.7,12.7,3.3,25,5.7,36.1,7.5a1.33,1.33,0,0,0,.3-.9Z" transform="translate(-0.07 0.2)"/><path class="cls-1" d="M170.2,53.9c-3.8-.9-7.8-2.1-11.6-3.3A104.05,104.05,0,0,0,151.5,61c6.1,2.1,12.5,4,18.9,5.7C170.4,61.6,170.4,57.6,170.2,53.9Z" transform="translate(-0.07 0.2)"/><path class="cls-1" d="M67.2,203.3c0,.5.2.9.2,1.2,8,3.5,17,7.1,26.6,10.6.5-3.8.9-8,1.7-12.3.7-4,1.4-8.3,2.4-12.7-11.8-4-22.4-8.3-32.1-12.5A102.75,102.75,0,0,0,67.2,203.3Z" transform="translate(-0.07 0.2)"/><path class="cls-1" d="M80.2,232.1a41,41,0,0,0,5.7,5.2c2.6,1.2,5.7,2.6,9,3.8-.2-1.2-.5-2.4-.7-3.5-5.1-2-9.8-3.6-14-5.5Z" transform="translate(-0.07 0.2)"/><path class="cls-1" d="M99.3,242a1.23,1.23,0,0,0,.2.5c5,1.7,10.1,3.3,15.1,4.5a1.23,1.23,0,0,0,.5-.2,12.79,12.79,0,0,0,2.8-2.1c-6.6-1.7-13.4-3.8-20-5.9C98.5,240.1,98.8,241.1,99.3,242Z" transform="translate(-0.07 0.2)"/><path class="cls-1" d="M63.2,202.6a107.81,107.81,0,0,1-.9-26.9c-2.8-1.4-5.7-2.6-8.3-4A113.08,113.08,0,0,1,43.4,166a86.06,86.06,0,0,0,3.8,24c.5,1.7.9,3.1,1.4,4.5A125.57,125.57,0,0,0,63.2,202.6Z" transform="translate(-0.07 0.2)"/><path class="cls-1" d="M119.8,248.4c3.3.7,6.6,1.4,9.4,1.9a37.84,37.84,0,0,0,7.5-1.2c-4.5-.9-9.4-1.9-14.4-3.1A28.9,28.9,0,0,0,119.8,248.4Z" transform="translate(-0.07 0.2)"/><path class="cls-1" d="M202.7,72.7c.7,0,1.2.2,1.9.2A101.76,101.76,0,0,0,192.8,58a25.76,25.76,0,0,1-4.5-.5,96.9,96.9,0,0,1,6.6,14.1c2.7.4,5.5.9,7.8,1.1Z" transform="translate(-0.07 0.2)"/><path class="cls-1" d="M218.5,213.2a47.56,47.56,0,0,1-10.4.5,89.26,89.26,0,0,1-18.4,20.7,20.08,20.08,0,0,0,6.6-1.2,102.17,102.17,0,0,0,19.8-17.4A15.1,15.1,0,0,0,218.5,213.2Z" transform="translate(-0.07 0.2)"/><path class="cls-1" d="M191.4,212.8c-2.8-.2-5.9-.7-9-1.2a122.24,122.24,0,0,1-15.3,21.9,120.74,120.74,0,0,0,16.5,1.4,34.5,34.5,0,0,0,3.8-3.1,91.8,91.8,0,0,0,16.3-18.2C199.9,213.5,195.9,213.2,191.4,212.8Z" transform="translate(-0.07 0.2)"/><path class="cls-1" d="M132.5,230.4a136.29,136.29,0,0,1-7.5,12c6.8,1.7,13.2,2.8,19.1,3.8A63.27,63.27,0,0,0,159,236.1c-8.1-1.4-17.1-3.3-26.5-5.7Z" transform="translate(-0.07 0.2)"/><path class="cls-1" d="M150.6,247.2c3.1.2,5.9.5,8.5.5a76,76,0,0,0,19.3-9.2,146.15,146.15,0,0,1-14.6-1.7A69.21,69.21,0,0,1,150.6,247.2Z" transform="translate(-0.07 0.2)"/><path class="cls-1" d="M144.8,203.8c-1.7,4.2-3.3,8.3-5,12-1.7,4-3.5,7.8-5.2,11.1a286.08,286.08,0,0,0,28.1,5.7c.2-.2.5-.7.9-.9a114.2,114.2,0,0,0,15.1-21c-10.6-1.5-22.2-4.1-33.9-6.9Z" transform="translate(-0.07 0.2)"/><path class="cls-1" d="M50.9,200.7c3.1,6.8,6.6,13,11.3,18.2a67.6,67.6,0,0,0,7.3,4.2,61.21,61.21,0,0,1-5.4-15.8C59.2,205,54.7,202.9,50.9,200.7Z" transform="translate(-0.07 0.2)"/><path class="cls-1" d="M162,40.9h-.2a46.2,46.2,0,0,0-10.6,2.8c2.1.7,4,1.7,6.4,2.4A25.63,25.63,0,0,1,162,40.9Z" transform="translate(-0.07 0.2)"/><path class="cls-1" d="M110.1,73.9c7.5,3.3,15.8,6.4,24.8,9.4,3.8-7.5,7.3-14.4,10.8-20.5-6.1-2.1-11.8-4.2-17-6.6A152.53,152.53,0,0,0,110.1,73.9Z" transform="translate(-0.07 0.2)"/><path class="cls-1" d="M147.8,59.5a104.05,104.05,0,0,1,7.1-10.4c-3.1-1.2-6.1-2.4-9-3.3a81.09,81.09,0,0,0-13.7,8C137.2,55.8,142.4,57.6,147.8,59.5Z" transform="translate(-0.07 0.2)"/><path class="cls-1" d="M169.7,49.6a27.27,27.27,0,0,0-1.4-6.8,24.63,24.63,0,0,0-2.4-.7,29,29,0,0,0-4.7,5A73.64,73.64,0,0,0,169.7,49.6Z" transform="translate(-0.07 0.2)"/><path class="cls-1" d="M180.1,52.2a66.56,66.56,0,0,0-7.3-8.3h-.2a52.33,52.33,0,0,1,1.2,6.6A49.05,49.05,0,0,0,180.1,52.2Z" transform="translate(-0.07 0.2)"/><path class="cls-1" d="M120.9,48.4a71.27,71.27,0,0,0,7.3,3.5,106.46,106.46,0,0,1,13.2-8.3c-1.4-.7-2.8-1.4-4-2.1a110,110,0,0,0-18.2,5.9A8.77,8.77,0,0,0,120.9,48.4Z" transform="translate(-0.07 0.2)"/><path class="cls-1" d="M298,198.9l-29.7-13.4c16.7-64.1-18.9-131.3-82.5-153-1.4-.5-2.8-.9-4-1.4L185.3.7l-3.5-.9L170,27.9a125.77,125.77,0,0,0-45.7-1.2,116.86,116.86,0,0,1,49,5.9c61.8,21.2,95,88.4,74.3,149.9A117.77,117.77,0,0,1,97.7,256.1C48,239.4,16.8,192.2,17.5,142.2a128.34,128.34,0,0,0,74,126.4l-3.1,23.1,2.6.7,9.4-20a21.9,21.9,0,0,0,3.3,1.2,127,127,0,0,0,160.1-75l33,3.8,1.2-3.5Z" transform="translate(-0.07 0.2)"/><path class="cls-1" d="M93.6,44C76.4,53,59.2,61.7,42.2,70.6a4.09,4.09,0,0,1-4.5,0A198.18,198.18,0,0,0,15.3,60.2C11.5,58.8,8,57.4,3.7,57.8A3.93,3.93,0,0,0,.4,59.7a4,4,0,0,0,.5,4c1.9,3.5,5.4,5.9,8.5,8A191.16,191.16,0,0,0,30.9,84.2,4.26,4.26,0,0,1,33.5,88c2.4,19.1,5,38.2,7.5,57.5a3.69,3.69,0,0,0,2.4,3.3c2.6,1.2,5.2,2.6,8,4.2.5-7.5.9-14.6.9-21.7.2-11.1,3.3-21.7,4.7-32.5.2-1.7,1.2-1.2,2.1-.7,3.5,1.4,6.8,2.8,10.4,4.2,3.8,1.4,7.3,3.1,11.1,4.2a3,3,0,0,1,2.1,2.1c1.2,4,2.6,8,3.8,12a4.92,4.92,0,0,0,3.3,3.8A42,42,0,0,1,95,127c1.2.7,1.4.2,1.7-.9.2-4.7.5-9.4.7-13.9a4.49,4.49,0,0,1,.5-1.9,5,5,0,0,1,1.2-1.4c3.8-2.8,7.3-5.7,11.1-8.5.9-.7,1.2-1.2,0-1.9-1.7-.9-3.5-1.7-5.2-2.6a6.75,6.75,0,0,0-5-.5c-4,1.4-8,2.4-12,3.8a3,3,0,0,1-2.8-.5c-3.3-2.4-6.6-4.5-9.9-6.6-3.1-2.1-6.4-4-9.4-5.9-.7-.5-1.9-.9-.5-2.1,8-7.5,15.1-15.8,24-22.4,5.7-4.2,11.3-8.7,17.2-13.2-2.8-1.4-5.4-2.8-8-4.2-2.4-1-3.6-1-5-.3Z" transform="translate(-0.07 0.2)"/><path class="cls-2" d="M345.16,191.06v-85h22.61v9q14.28-8.5,27.2-11v23q-13.77,2.9-23.63,5.95l-3.4,1.19v56.95Zm86.11-21.51q4,3.49,11.47,3.49,15.81,0,28.22-1l4.76-.51.34,16.83q-19.55,4.75-35.36,4.76-19.21,0-27.88-10.2t-8.67-33.15q0-45.73,37.57-45.73,37.06,0,37.06,38.42l-1.7,15.81h-50Q427.27,166.07,431.27,169.55Zm25.07-28.64q0-10.2-3.23-14.2t-11.3-4q-8.08,0-11.39,4.16t-3.49,14ZM495.1,95.18V72.06h22.78V95.18Zm0,95.88v-85h22.78v85ZM600,127.31q-21.09-2.72-29.5-2.72t-10.88,1.53a5.28,5.28,0,0,0-2.46,4.84,4.61,4.61,0,0,0,3.31,4.59q3.31,1.27,17,3.74t19.47,8.08q5.77,5.61,5.78,18.19,0,27.54-34.17,27.54a148.33,148.33,0,0,1-27.2-3.06l-5.44-1,.68-19q21.07,2.72,29.32,2.72t11.22-1.62a5.19,5.19,0,0,0,3-4.84,5,5,0,0,0-3.15-4.76q-3.13-1.53-16.32-3.74T541,150.26q-6.46-5.26-6.46-18.79t9.18-20.4q9.18-6.88,23.63-6.88,10,0,27.37,3.23l5.61,1Zm42.07,42.24q4,3.49,11.48,3.49,15.81,0,28.22-1l4.76-.51.34,16.83q-19.56,4.75-35.36,4.76-19.21,0-27.88-10.2T615,149.75Q615,104,652.52,104q37.05,0,37.06,38.42l-1.7,15.81h-50Q638.07,166.07,642.06,169.55Zm25.08-28.64q0-10.2-3.23-14.2t-11.31-4q-8.07,0-11.39,4.16t-3.48,14ZM753,125.44H732.08v34.85a69.82,69.82,0,0,0,.25,7.22,5.86,5.86,0,0,0,1.87,3.66,7.09,7.09,0,0,0,5,1.53l12.92-.34,1,18.19q-11.4,2.55-17.34,2.55-15.3,0-20.91-6.89t-5.62-25.41V125.44h-10V106.06h10V82.43h22.79v23.63H753Zm19.37-9.78q9-11.64,30.1-11.64t30.08,11.64q9,11.66,9,32.73,0,44.72-39.09,44.71t-39.11-44.71Q763.35,127.32,772.36,115.66ZM790,167.6q3.48,6.12,12.5,6.12T815,167.6q3.48-6.12,3.48-19.21t-3.48-19q-3.5-6-12.49-5.95T790,129.35q-3.48,6-3.49,19T790,167.6Zm68.25,59.16V106.06h22.61v4.59Q891.88,104,900.2,104q17.17,0,25.33,10.28t8.16,34.94q0,24.64-9,34.25T895.1,193.1a77.69,77.69,0,0,1-12.07-1l-2-.34v35Zm37.57-102.34A34.58,34.58,0,0,0,883,127l-2,.85v44.54a98.15,98.15,0,0,0,12.41,1q9.87,0,13.52-5.78t3.65-19.72Q910.57,124.42,895.78,124.42Zm54.91-29.24V72.06h22.78V95.18Zm0,95.88v-85h22.78v85Zm109-58.48v35.36q.35,4.08,1.36,5.69t4.25,2.3l-.68,17.17a64.52,64.52,0,0,1-13.85-1.19,31.06,31.06,0,0,1-10.46-4.76,56.54,56.54,0,0,1-25,5.95q-26.35,0-26.35-27.88,0-13.6,7.31-19.3t22.44-6.71l18.19-1.36v-5.27q0-5.27-2.38-7.23t-7.65-1.95l-32,1.36L994.21,109a132.21,132.21,0,0,1,34.6-4.93q16.39,0,23.63,6.8T1059.66,132.58ZM1021.41,155q-9.52.85-9.52,10.2t8.33,9.35a55,55,0,0,0,14.11-2l2.55-.68V153.66Z" transform="translate(-0.07 0.2)"/><path class="cls-2" d="M737.37,347.55V320l-.33-.66q-15.6-.33-19.42-.33-20.6.16-20.59.5l.33.33v27.08a57.28,57.28,0,0,0,1.33,13.88c.22.77,1.75,1.65,4.57,2.64A22,22,0,0,0,709,364.9c.45,0,.69.82.75,2.48a9,9,0,0,1-.41,3.63q-.84,0-10.21-.66t-13.7-.66q-4.32,0-12.53.58l-10.71.74a4.16,4.16,0,0,1-.66-2.81q0-3.3.33-3.3a24.58,24.58,0,0,0,6.31-1.32c2.87-.88,4.48-1.76,4.81-2.65q1.15-4.46,1.16-13.38V284.46q0-10.06-1.16-12.88-.83-1.81-4.65-3.14a19.57,19.57,0,0,0-5.81-1.32c-.44,0-.66-1.1-.66-3.31,0-1.65.11-2.58.33-2.8l23.08,1q4.31,0,24.23-1a7.76,7.76,0,0,1,.5,3.46c0,1.77-.22,2.65-.66,2.65a24,24,0,0,0-5.81,1.4q-4.32,1.41-4.82,2.56c-.89,2.31-1.33,7-1.33,14v23.46l.34.49q16.26.33,19.92.33,4.49,0,19.42-.33a1,1,0,0,0,.33-.66v-24a55.5,55.5,0,0,0-1.16-13c-.33-.88-1.85-1.81-4.56-2.81a19.93,19.93,0,0,0-5.9-1.48q-.66,0-.75-2.73c0-1.81.14-2.94.59-3.38q22.9,1,24.73,1,2.49,0,22.41-1a9.35,9.35,0,0,1,.5,3c0,2.09-.28,3.14-.83,3.14a24.08,24.08,0,0,0-5.81,1.4q-4.32,1.41-4.65,2.56c-.89,3.3-1.33,8-1.33,14v61.77a58.12,58.12,0,0,0,1.33,14c.22.78,1.75,1.6,4.57,2.48a24.2,24.2,0,0,0,5.72,1.32c.45,0,.67,1.16.67,3.47a8.93,8.93,0,0,1-.5,2.81q-1.5,0-9.79-.66T750,369.69q-4.49,0-13.53.58t-11.21.74c-.44-.44-.63-1.57-.58-3.39s.31-2.72.75-2.72a22.32,22.32,0,0,0,6.14-1.49c2.88-1,4.48-1.92,4.82-2.81Q737.37,356.8,737.37,347.55Zm63.24,8.1q-15.69-16.35-15.69-39.48t15.69-39.55q15.69-16.44,37.6-16.44t37.68,16.44q15.78,16.42,15.77,39.55t-15.77,39.48Q860.13,372,838.21,372T800.61,355.65Zm35.11-86.22a18.94,18.94,0,0,0-14.61,6.36,34.72,34.72,0,0,0-8.05,15.61,89.85,89.85,0,0,0-2.24,21.14,87.59,87.59,0,0,0,1.57,16.6,83,83,0,0,0,4.82,16,30.93,30.93,0,0,0,9.38,12.72,22.28,22.28,0,0,0,14.28,4.87q12.45,0,18.67-12.55t6.23-30.89a102.58,102.58,0,0,0-1.41-17.26,75.86,75.86,0,0,0-4.57-15.85,28,28,0,0,0-9.3-12.23A24.19,24.19,0,0,0,835.72,269.43Zm100.09-8.09q11.21.5,18.17.49t18.27-.49q11.28-.49,18.26-.5A50.79,50.79,0,0,0,1002,259l3.16,27.08c-.78.77-2.39,1.16-4.82,1.16-1,0-1.55-.28-1.66-.83q-4.15-16.35-17.76-16.35t-14.11,3q-1.34,4.63-1.33,14.7v59.63a54.64,54.64,0,0,0,1.33,13.38q.33,1.16,4.56,2.64a22,22,0,0,0,5.73,1.49c.44,0,.66,1.05.66,3.14a10,10,0,0,1-.33,3q-1.15,0-10-.66t-13.11-.66q-4.49,0-13.12.58l-11,.74a3.76,3.76,0,0,1-.67-2.64c0-2.32.17-3.47.5-3.47a23.25,23.25,0,0,0,6.14-1.41c2.88-.93,4.48-1.84,4.82-2.72a53.63,53.63,0,0,0,1.16-12.72V288.26q0-12.88-1.33-15.2a5.81,5.81,0,0,0-.91-1.4,10.82,10.82,0,0,0-3.57-1,54.86,54.86,0,0,0-9.13-.58,16.45,16.45,0,0,0-11.13,3.72q-4.3,3.72-6.64,12.47c-.11.55-.66.82-1.66.82-2.43,0-4-.38-4.81-1.15L906.17,259a50.78,50.78,0,0,0,11.46,1.81Q924.61,260.84,935.81,261.34Zm105.73.16q7.31,0,25.73-.41t27.89-.41q.16,1.65,4.82,24.44c-.56.55-1.83.83-3.82.83a2.26,2.26,0,0,1-2.33-1.16,27.9,27.9,0,0,0-10-10.74q-6.81-4.46-13.28-4.45h-6.31q-10.46,0-10.79,2.14a70.5,70.5,0,0,0-.83,12.88v25.44q0,1,7.14,1h8.8q10.29,0,11.29-.66c.55-.44,1-2,1.33-4.79a33.88,33.88,0,0,1,1-4.79c.11-.77.94-1.15,2.49-1.15,1.88,0,3.1.27,3.65.82V331.7q-.66.66-3.48.66c-1.44,0-2.33-.44-2.66-1.32-.44-1.54-.83-2.86-1.16-4s-.61-1.92-.83-2.47a9,9,0,0,0-.75-1.49,5.49,5.49,0,0,0-.58-.83,3.4,3.4,0,0,0-.66-.41,2.75,2.75,0,0,1-.67-.41q-2.16-1.32-12.94-1.32-12,0-12,1.48v25.44q0,7.92,1.33,11.73.83,2.64,11.29,2.64h4.32a39.78,39.78,0,0,0,18.59-4.3,24,24,0,0,0,6.39-5.61,31.54,31.54,0,0,0,5.56-9.25c.11-.66.89-1,2.33-1q4,0,5,1-8.15,22.78-9,28.41-8.46,0-26.89-.33t-29.88-.33l-24.24,1a4.15,4.15,0,0,1-.67-2.81c0-2.2.23-3.3.67-3.3a26.68,26.68,0,0,0,6.22-1.16c2.83-.77,4.4-1.59,4.73-2.48q1-3.79,1-14.53V284.29q0-9.07-1-12.88-.5-1.32-4.89-3a21.22,21.22,0,0,0-6.23-1.65c-.44,0-.66-1-.66-3,0-1.76.16-2.8.5-3.13Q1030.42,261.51,1041.54,261.5Zm102,.5q3.32,0,23.24-1a9.35,9.35,0,0,1,.5,3c0,2.09-.23,3.14-.67,3.14a26,26,0,0,0-6,1.4q-4.48,1.41-4.82,2.56a56.4,56.4,0,0,0-1.16,13.21v62.6q0,8.1,1.33,11.9.83,2.64,11.29,2.64h4.31a39.8,39.8,0,0,0,18.6-4.3,24,24,0,0,0,6.39-5.61,31.54,31.54,0,0,0,5.56-9.25c.22-.66,1-1,2.32-1q4,0,5,1-8.13,22.78-9,28.41-9.46,0-29.55-.33T1143.7,370l-24.23,1a4.1,4.1,0,0,1-.67-2.81c0-2.2.22-3.3.67-3.3a26.77,26.77,0,0,0,6.22-1.16c2.82-.77,4.4-1.59,4.73-2.48q1-3.79,1-14.53v-63.1q0-10.06-1.33-12.38-.83-1.32-4.65-2.73a18.65,18.65,0,0,0-5.64-1.4c-.44,0-.67-.94-.67-2.81s.11-3.08.34-3.3Q1142.38,262,1143.54,262Zm78.26,27.58q0-12.39,11-21.14a38.21,38.21,0,0,1,24.32-8.75,55,55,0,0,1,7.22.49q3.73.49,6.31,1c1.71.33,4.09.86,7.14,1.57s5.44,1.24,7.22,1.57a249.21,249.21,0,0,1,1.82,27.42,2.46,2.46,0,0,1-2.49,1.65c-3.21,0-4.92-.38-5.14-1.16a32.58,32.58,0,0,0-7.14-15.77q-6-7.51-14.78-7.52a13.86,13.86,0,0,0-9.54,3.47q-3.9,3.48-3.9,11.07a13.58,13.58,0,0,0,1.66,6.44,22.69,22.69,0,0,0,5.56,6.44,71.39,71.39,0,0,0,6.39,5q2.49,1.65,8.13,5.28c1,.66,1.77,1.16,2.33,1.49q1.32.82,5.48,3.3c2.76,1.66,4.73,2.89,5.89,3.72a55.86,55.86,0,0,1,4.81,4,20.6,20.6,0,0,1,4.49,5.53,36.87,36.87,0,0,1,2.57,7.1,37.84,37.84,0,0,1,1.16,9.66q0,13.21-11,21.89a39.5,39.5,0,0,1-25.23,8.67q-13.11,0-31.54-4.29a138.58,138.58,0,0,1-2.57-14.46,112.06,112.06,0,0,1-1.25-13c.33-1.1,1.33-1.66,3-1.66,3.43,0,5.2.34,5.31,1q1.34,7.59,8.3,15.27t15.44,7.68q16.44,0,16.44-18a11.36,11.36,0,0,0-1.5-5.53,20.29,20.29,0,0,0-4.48-5.37,65.17,65.17,0,0,0-5.31-4.29c-1.55-1.1-3.74-2.54-6.56-4.3s-4.62-2.91-5.4-3.47q-.83-.5-2.49-1.65-5.47-3.63-8.3-5.78a62.86,62.86,0,0,1-6.55-5.95,22.26,22.26,0,0,1-5.32-8.34A31.34,31.34,0,0,1,1221.8,289.58Z" transform="translate(-0.07 0.2)"/></svg>